<?xml version="1.0" encoding="UTF-8"?>
<svg xmlns="http://www.w3.org/2000/svg" xmlns:xlink="http://www.w3.org/1999/xlink" width="150pt" height="150pt" viewBox="0 0 150 150" version="1.1">
<g id="surface1">
<path style=" stroke:none;fill-rule:nonzero;fill:rgb(0%,0%,0%);fill-opacity:1;" d="M 139.949219 144.027344 L 132.1875 41.789062 C 132.003906 39.347656 129.964844 37.457031 127.511719 37.457031 L 22.386719 37.457031 C 19.9375 37.457031 17.894531 39.347656 17.714844 41.796875 L 9.886719 144.960938 C 9.789062 146.257812 10.238281 147.542969 11.125 148.5 C 12.011719 149.457031 13.257812 150 14.5625 150 L 135.34375 150 C 135.371094 150 135.40625 150 135.4375 150 C 138.027344 150 140.125 147.898438 140.125 145.304688 C 140.125 144.867188 140.066406 144.433594 139.949219 144.027344 Z M 19.617188 140.621094 L 26.734375 46.835938 L 123.164062 46.835938 L 130.285156 140.621094 Z M 19.617188 140.621094 "/>
<path style=" stroke:none;fill-rule:nonzero;fill:rgb(0%,0%,0%);fill-opacity:1;" d="M 74.949219 0 C 54.265625 0 37.4375 16.835938 37.4375 37.523438 L 37.4375 56.214844 C 37.4375 58.804688 39.539062 60.902344 42.125 60.902344 C 44.714844 60.902344 46.816406 58.804688 46.816406 56.214844 L 46.816406 37.523438 C 46.816406 22.003906 59.433594 9.378906 74.949219 9.378906 C 90.46875 9.378906 103.085938 22.003906 103.085938 37.523438 L 103.085938 56.214844 C 103.085938 58.804688 105.1875 60.902344 107.773438 60.902344 C 110.363281 60.902344 112.464844 58.804688 112.464844 56.214844 L 112.464844 37.523438 C 112.464844 16.835938 95.636719 0 74.949219 0 Z M 74.949219 0 "/>
</g>
</svg>
